<svg width="14" height="3" viewBox="0 0 14 3" fill="none" xmlns="http://www.w3.org/2000/svg">
<path d="M2.41162 3C2.0138 3 1.63227 2.84196 1.35096 2.56066C1.06966 2.27936 0.911621 1.89782 0.911621 1.5C0.911621 1.10218 1.06966 0.720644 1.35096 0.43934C1.63227 0.158035 2.0138 0 2.41162 0C2.80945 0 3.19098 0.158035 3.47228 0.43934C3.75359 0.720644 3.91162 1.10218 3.91162 1.5C3.91162 1.89782 3.75359 2.27936 3.47228 2.56066C3.19098 2.84196 2.80945 3 2.41162 3ZM7.41162 3C7.0138 3 6.63227 2.84196 6.35096 2.56066C6.06966 2.27936 5.91162 1.89782 5.91162 1.5C5.91162 1.10218 6.06966 0.720644 6.35096 0.43934C6.63227 0.158035 7.0138 0 7.41162 0C7.80945 0 8.19098 0.158035 8.47228 0.43934C8.75359 0.720644 8.91162 1.10218 8.91162 1.5C8.91162 1.89782 8.75359 2.27936 8.47228 2.56066C8.19098 2.84196 7.80945 3 7.41162 3ZM12.4116 3C12.0138 3 11.6323 2.84196 11.351 2.56066C11.0697 2.27936 10.9116 1.89782 10.9116 1.5C10.9116 1.10218 11.0697 0.720644 11.351 0.43934C11.6323 0.158035 12.0138 0 12.4116 0C12.8094 0 13.191 0.158035 13.4723 0.43934C13.7536 0.720644 13.9116 1.10218 13.9116 1.5C13.9116 1.89782 13.7536 2.27936 13.4723 2.56066C13.191 2.84196 12.8094 3 12.4116 3Z" fill="#7F8A9B" fill-opacity="0.4"/>
</svg>
